<?xml version="1.0" encoding="UTF-8" standalone="no"?>
<!DOCTYPE svg PUBLIC "-//W3C//DTD SVG 1.1//EN" "http://www.w3.org/Graphics/SVG/1.1/DTD/svg11.dtd">
<svg xmlns="http://www.w3.org/2000/svg" xmlns:xlink="http://www.w3.org/1999/xlink" version="1.1" width="832pt" height="196pt" viewBox="0 0 832 196">
<g enable-background="new">
<g id="Layer-1" data-name="Layer">
<path transform="matrix(1,0,0,-1,393.458,15.730499)" d="M 0 0 L -35.632 0 L -35.632 -54.264 L -45.523 -64.155 L -76.497 -64.047 L -67.613 -99.68 L -45.523 -99.68 L -35.632 -109.786 L -35.632 -163.301 L -35.632 -163.727 L 0 -163.727 L 0 -97.132 L -15.161 -81.863 L 0 -66.702 Z " fill="#ffcb04"/>
<path transform="matrix(1,0,0,-1,246.0171,15.730499)" d="M 0 0 L -31.95 -128.146 L -58.4 -128.146 L -58.4 -163.727 L -40.822 -163.727 L -23.068 -163.727 L -5.189 -163.727 L 35.633 0 Z " fill="#231f20"/>
<path transform="matrix(1,0,0,-1,84.2534,79.7773)" d="M 0 0 L -8.884 -35.633 L 222.249 -35.633 L 213.365 0 Z " fill="#ffcb04"/>
<path transform="matrix(1,0,0,-1,205.1953,179.457)" d="M 0 0 L -35.632 0 L -76.454 163.727 L -40.821 163.727 Z " fill="#231f20"/>
<path transform="matrix(1,0,0,-1,52.5684,179.457)" d="M 0 0 L .283 0 L 35.635 0 L 51.604 64.047 L 15.97 64.047 Z " fill="#231f20"/>
<path transform="matrix(1,0,0,-1,146.6909,15.730499)" d="M 0 0 L -35.333 0 L -53.299 0 L -69.268 -64.047 L -33.635 -64.047 L -26.538 -35.581 L 0 -35.581 Z " fill="#231f20"/>
<path transform="matrix(1,0,0,-1,341.8564,115.4102)" d="M 0 0 L -8.884 35.633 L -24.853 99.68 L -46.045 99.68 L -81.378 99.68 L -81.378 64.099 L -51.614 64.099 L -44.516 35.633 L -35.632 0 L -19.664 -64.047 L 15.863 -64.047 L 15.969 -64.047 Z " fill="#231f20"/>
<path transform="matrix(1,0,0,-1,76.9683,79.7773)" d="M 0 0 L -14.575 -.108 L -24.572 9.215 L -24.573 9.214 L -24.573 64.047 L -60.205 64.047 L -60.205 -1.98 L -44.37 -17.816 L -60.205 -33.192 L -60.205 -99.68 L -24.854 -99.68 L -24.573 -99.68 L -24.573 -98.552 L -24.573 -45.278 L -24.572 -45.278 L -14.575 -35.74 L -8.885 -35.633 L 26.748 -35.633 L 35.632 0 Z " fill="#ffcb04"/>
<clipPath id="cp0">
<path transform="matrix(1,0,0,-1,0,196)" d="M 0 196 L 832 196 L 832 0 L 0 0 Z "/>
</clipPath>
<g clip-path="url(#cp0)">
<path transform="matrix(1,0,0,-1,766.7627,37.1631)" d="M 0 0 C 0 3.004 -1.169 5.224 -3.505 6.661 C -5.843 8.096 -9.113 8.813 -13.32 8.813 L -18.028 8.813 L -18.028 -9.915 L -14.021 -9.915 C -9.615 -9.915 -6.177 -9.048 -3.706 -7.311 C -1.236 -5.576 0 -3.139 0 0 M 15.824 .301 C 15.824 -4.174 14.572 -8.08 12.068 -11.417 C 9.565 -14.757 6.074 -17.293 1.602 -19.029 L 23.536 -45.27 L 3.306 -45.27 L -15.022 -22.134 L -18.028 -22.134 L -18.028 -45.27 L -34.453 -45.27 L -34.453 21.433 L -13.221 21.433 C -9.081 21.433 -5.242 20.998 -1.703 20.131 C 1.836 19.262 4.908 17.96 7.512 16.225 C 10.116 14.488 12.152 12.302 13.62 9.665 C 15.089 7.026 15.824 3.906 15.824 .301 " fill="#231f20"/>
<path transform="matrix(1,0,0,-1,0,196)" d="M 815.236 113.567 L 798.81106 113.567 L 798.81106 180.26902 L 815.236 180.26902 Z " fill="#231f20"/>
<path transform="matrix(1,0,0,-1,495.2695,82.4326)" d="M 0 0 L 0 27.142 L -30.912 27.142 L -30.912 0 L -47.337 0 L -47.337 66.702 L -30.912 66.702 L -30.912 40.563 L 0 40.563 L 0 66.702 L 16.426 66.702 L 16.426 0 Z " fill="#231f20"/>
<path transform="matrix(1,0,0,-1,558.0664,58.195299)" d="M 0 0 L 0 -24.237 L -16.426 -24.237 L -16.426 0 L -38.359 42.465 L -20.832 42.465 L -8.213 14.422 L 4.406 42.465 L 21.933 42.465 Z " fill="#231f20"/>
<path transform="matrix(1,0,0,-1,632.6807,82.4326)" d="M 0 0 L -15.825 0 L -28.845 37.357 L -30.848 0 L -46.972 0 L -41.965 66.702 L -27.143 66.702 L -7.913 14.936 L 11.316 66.702 L 26.14 66.702 L 31.147 0 L 15.022 0 L 13.02 37.357 Z " fill="#231f20"/>
<path transform="matrix(1,0,0,-1,676.5469,15.730499)" d="M 0 0 L 41.564 0 L 41.564 -13.02 L 16.426 -13.02 L 16.426 -26.44 L 40.362 -26.44 L 40.362 -39.46 L 16.426 -39.46 L 16.426 -53.682 L 41.865 -53.682 L 41.865 -66.702 L 0 -66.702 Z " fill="#231f20"/>
<path transform="matrix(1,0,0,-1,735.2197,112.8555)" d="M 0 0 L 0 -53.598 L 24.5 -53.598 L 24.5 -66.598 L -16.399 -66.598 L -16.399 0 Z " fill="#231f20"/>
<path transform="matrix(1,0,0,-1,494.8584,179.457)" d="M 0 0 L -15.8 0 L -28.799 37.302 L -30.799 .004 L -46.897 .004 L -41.898 66.602 L -27.099 66.602 L -7.9 14.916 L 11.299 66.602 L 26.098 66.602 L 31.099 .004 L 14.998 .004 L 12.998 37.302 Z " fill="#231f20"/>
<path transform="matrix(1,0,0,-1,538.6553,112.8555)" d="M 0 0 L 41.498 0 L 41.498 -13 L 16.399 -13 L 16.399 -26.399 L 40.298 -26.399 L 40.298 -39.398 L 16.399 -39.398 L 16.399 -53.598 L 41.798 -53.598 L 41.798 -66.598 L 0 -66.598 Z " fill="#231f20"/>
<path transform="matrix(1,0,0,-1,640.8486,112.8555)" d="M 0 0 L 0 -11.707 L -17.898 -11.707 L -17.898 -66.598 L -34.298 -66.598 L -34.298 -11.707 L -52.196 -11.707 L -52.196 0 Z " fill="#231f20"/>
<path transform="matrix(1,0,0,-1,666.1475,153.5537)" d="M 0 0 L 17.1 0 L 8.6 28.098 Z M 21.299 -13 L -4.199 -13 L -8.3 -25.899 L -25.198 -25.899 L -.4 40.698 L 17.599 40.698 L 42.397 -25.899 L 25.499 -25.899 Z " fill="#231f20"/>
<path transform="matrix(1,0,0,-1,815.2363,159.4062)" d="M 0 0 C 0 -2.902 -.577 -5.62 -1.73 -8.157 C -2.885 -10.696 -4.549 -12.903 -6.724 -14.782 C -8.899 -16.661 -11.537 -18.145 -14.634 -19.231 C -17.732 -20.319 -21.259 -20.863 -25.214 -20.863 C -28.84 -20.863 -32.467 -20.468 -36.091 -19.677 C -39.717 -18.886 -43.078 -17.733 -46.176 -16.216 L -42.913 -3.856 C -40.606 -4.978 -38.004 -5.95 -35.102 -6.773 C -32.202 -7.598 -29.07 -8.009 -25.708 -8.009 C -22.939 -8.009 -20.666 -7.5 -18.886 -6.477 C -17.106 -5.456 -16.216 -3.791 -16.216 -1.483 C -16.216 .164 -16.992 1.663 -18.54 3.016 C -20.09 4.366 -22.907 5.8 -26.994 7.316 C -33.455 9.755 -38.167 12.54 -41.133 15.672 C -44.1 18.803 -45.583 22.807 -45.583 27.686 C -45.583 34.079 -43.491 38.957 -39.304 42.32 C -35.119 45.681 -29.335 47.363 -21.951 47.363 C -18.193 47.363 -14.602 46.95 -11.174 46.127 C -7.746 45.302 -4.846 44.231 -2.473 42.912 L -5.241 30.752 C -7.55 31.871 -10.069 32.777 -12.805 33.47 C -15.541 34.163 -18.359 34.508 -21.259 34.508 C -23.698 34.508 -25.659 34.097 -27.143 33.273 C -28.625 32.447 -29.367 31.047 -29.367 29.069 C -29.367 28.146 -29.235 27.355 -28.972 26.696 C -28.709 26.038 -28.229 25.411 -27.538 24.818 C -26.846 24.225 -25.874 23.632 -24.621 23.038 C -23.37 22.445 -21.788 21.753 -19.875 20.962 C -17.106 19.841 -14.503 18.654 -12.063 17.402 C -9.626 16.15 -7.515 14.699 -5.735 13.052 C -3.955 11.404 -2.555 9.525 -1.533 7.416 C -.512 5.306 0 2.834 0 0 " fill="#231f20"/>
</g>
</g>
</g>
</svg>
