<?xml version="1.0" encoding="UTF-8" standalone="no"?>
<!DOCTYPE svg PUBLIC "-//W3C//DTD SVG 1.1//EN" "http://www.w3.org/Graphics/SVG/1.1/DTD/svg11.dtd">
<svg xmlns="http://www.w3.org/2000/svg" xmlns:xlink="http://www.w3.org/1999/xlink" version="1.1" width="1920pt" height="1080pt" viewBox="0 0 1920 1080">
<g enable-background="new">
<g id="Layer-1" data-name="Layer">
<path transform="matrix(1,0,0,-1,0,1080)" d="M 0 0 L 1920 0 L 1920 1080 L 0 1080 Z " fill="#212529"/>
<path transform="matrix(1,0,0,-1,946.8895,458.1369)" d="M 0 0 L -35.632 0 L -35.632 -54.263 L -45.523 -64.154 L -76.497 -64.047 L -67.613 -99.679 L -45.523 -99.679 L -35.632 -109.786 L -35.632 -163.301 L -35.632 -163.726 L 0 -163.726 L 0 -97.132 L -15.161 -81.863 L 0 -66.702 Z " fill="#ffcb04"/>
<path transform="matrix(1,0,0,-1,799.4485,458.1369)" d="M 0 0 L -31.95 -128.146 L -58.4 -128.146 L -58.4 -163.726 L -40.821 -163.726 L -23.068 -163.726 L -5.189 -163.726 L 35.633 0 Z " fill="#231f20"/>
<path transform="matrix(1,0,0,-1,637.6849,522.1838)" d="M 0 0 L -8.884 -35.632 L 222.249 -35.632 L 213.365 0 Z " fill="#ffcb04"/>
<path transform="matrix(1,0,0,-1,758.6268,621.86306)" d="M 0 0 L -35.632 0 L -76.454 163.726 L -40.821 163.726 Z " fill="#231f20"/>
<path transform="matrix(1,0,0,-1,605.9998,621.86306)" d="M 0 0 L .283 0 L 35.635 0 L 51.604 64.047 L 15.97 64.047 Z " fill="#231f20"/>
<path transform="matrix(1,0,0,-1,700.1224,458.1369)" d="M 0 0 L -35.333 0 L -53.299 0 L -69.268 -64.047 L -33.635 -64.047 L -26.538 -35.581 L 0 -35.581 Z " fill="#231f20"/>
<path transform="matrix(1,0,0,-1,895.2879,557.8161)" d="M 0 0 L -8.884 35.632 L -24.853 99.679 L -46.045 99.679 L -81.378 99.679 L -81.378 64.099 L -51.614 64.099 L -44.516 35.632 L -35.632 0 L -19.664 -64.047 L 15.863 -64.047 L 15.969 -64.047 Z " fill="#231f20"/>
<path transform="matrix(1,0,0,-1,630.3997,522.1838)" d="M 0 0 L -14.575 -.107 L -24.572 9.215 L -24.573 9.214 L -24.573 64.047 L -60.205 64.047 L -60.205 -1.98 L -44.37 -17.816 L -60.205 -33.193 L -60.205 -99.679 L -24.854 -99.679 L -24.573 -99.679 L -24.573 -98.552 L -24.573 -45.278 L -24.572 -45.278 L -14.575 -35.741 L -8.885 -35.632 L 26.748 -35.632 L 35.632 0 Z " fill="#ffcb04"/>
<clipPath id="cp0">
<path transform="matrix(1,0,0,-1,0,1080)" d="M 0 1080 L 1920 1080 L 1920 0 L 0 0 Z "/>
</clipPath>
<g clip-path="url(#cp0)">
<path transform="matrix(1,0,0,-1,1320.1937,479.56953)" d="M 0 0 C 0 3.004 -1.169 5.224 -3.504 6.661 C -5.843 8.096 -9.113 8.813 -13.32 8.813 L -18.027 8.813 L -18.027 -9.915 L -14.021 -9.915 C -9.614 -9.915 -6.176 -9.048 -3.705 -7.311 C -1.236 -5.576 0 -3.139 0 0 M 15.825 .301 C 15.825 -4.174 14.572 -8.079 12.069 -11.417 C 9.565 -14.757 6.075 -17.293 1.603 -19.029 L 23.536 -45.27 L 3.306 -45.27 L -15.022 -22.134 L -18.027 -22.134 L -18.027 -45.27 L -34.453 -45.27 L -34.453 21.433 L -13.22 21.433 C -9.08 21.433 -5.242 20.998 -1.702 20.131 C 1.836 19.262 4.908 17.96 7.512 16.225 C 10.116 14.488 12.152 12.302 13.621 9.665 C 15.09 7.026 15.825 3.906 15.825 .301 " fill="#231f20"/>
<path transform="matrix(1,0,0,-1,0,1080)" d="M 1368.668 555.161 L 1352.242 555.161 L 1352.242 621.86306 L 1368.668 621.86306 Z " fill="#231f20"/>
<path transform="matrix(1,0,0,-1,1048.7015,524.8391)" d="M 0 0 L 0 27.142 L -30.912 27.142 L -30.912 0 L -47.337 0 L -47.337 66.702 L -30.912 66.702 L -30.912 40.563 L 0 40.563 L 0 66.702 L 16.425 66.702 L 16.425 0 Z " fill="#231f20"/>
<path transform="matrix(1,0,0,-1,1111.4974,500.60169)" d="M 0 0 L 0 -24.237 L -16.425 -24.237 L -16.425 0 L -38.358 42.465 L -20.832 42.465 L -8.213 14.422 L 4.407 42.465 L 21.933 42.465 Z " fill="#231f20"/>
<path transform="matrix(1,0,0,-1,1186.1117,524.8391)" d="M 0 0 L -15.824 0 L -28.844 37.358 L -30.847 0 L -46.972 0 L -41.965 66.702 L -27.142 66.702 L -7.912 14.936 L 11.317 66.702 L 26.14 66.702 L 31.148 0 L 15.022 0 L 13.02 37.358 Z " fill="#231f20"/>
<path transform="matrix(1,0,0,-1,1229.9789,458.1369)" d="M 0 0 L 41.563 0 L 41.563 -13.02 L 16.425 -13.02 L 16.425 -26.44 L 40.362 -26.44 L 40.362 -39.46 L 16.425 -39.46 L 16.425 -53.682 L 41.864 -53.682 L 41.864 -66.702 L 0 -66.702 Z " fill="#231f20"/>
<path transform="matrix(1,0,0,-1,1288.6517,555.2624)" d="M 0 0 L 0 -53.597 L 24.499 -53.597 L 24.499 -66.597 L -16.399 -66.597 L -16.399 0 Z " fill="#231f20"/>
<path transform="matrix(1,0,0,-1,1048.2894,621.86306)" d="M 0 0 L -15.8 0 L -28.798 37.302 L -30.798 .004 L -46.897 .004 L -41.898 66.601 L -27.099 66.601 L -7.899 14.916 L 11.3 66.601 L 26.099 66.601 L 31.099 .004 L 14.999 .004 L 12.999 37.302 Z " fill="#231f20"/>
<path transform="matrix(1,0,0,-1,1092.0863,555.2624)" d="M 0 0 L 41.498 0 L 41.498 -13 L 16.399 -13 L 16.399 -26.398 L 40.299 -26.398 L 40.299 -39.398 L 16.399 -39.398 L 16.399 -53.597 L 41.799 -53.597 L 41.799 -66.597 L 0 -66.597 Z " fill="#231f20"/>
<path transform="matrix(1,0,0,-1,1194.2807,555.2624)" d="M 0 0 L 0 -11.707 L -17.899 -11.707 L -17.899 -66.597 L -34.299 -66.597 L -34.299 -11.707 L -52.196 -11.707 L -52.196 0 Z " fill="#231f20"/>
<path transform="matrix(1,0,0,-1,1219.5785,595.9606)" d="M 0 0 L 17.1 0 L 8.601 28.099 Z M 21.299 -13 L -4.198 -13 L -8.3 -25.898 L -25.198 -25.898 L -.399 40.698 L 17.6 40.698 L 42.398 -25.898 L 25.499 -25.898 Z " fill="#231f20"/>
<path transform="matrix(1,0,0,-1,1368.6683,601.8122)" d="M 0 0 C 0 -2.902 -.578 -5.621 -1.73 -8.157 C -2.885 -10.696 -4.549 -12.903 -6.724 -14.782 C -8.899 -16.661 -11.537 -18.145 -14.634 -19.231 C -17.733 -20.319 -21.259 -20.863 -25.214 -20.863 C -28.84 -20.863 -32.467 -20.468 -36.092 -19.677 C -39.717 -18.886 -43.078 -17.733 -46.177 -16.216 L -42.914 -3.856 C -40.606 -4.979 -38.004 -5.95 -35.103 -6.773 C -32.202 -7.599 -29.071 -8.009 -25.708 -8.009 C -22.939 -8.009 -20.667 -7.5 -18.886 -6.477 C -17.107 -5.456 -16.216 -3.792 -16.216 -1.483 C -16.216 .163 -16.992 1.663 -18.541 3.016 C -20.09 4.365 -22.907 5.799 -26.995 7.316 C -33.455 9.754 -38.168 12.54 -41.134 15.672 C -44.101 18.802 -45.584 22.806 -45.584 27.686 C -45.584 34.079 -43.491 38.957 -39.305 42.319 C -35.119 45.681 -29.335 47.362 -21.952 47.362 C -18.193 47.362 -14.602 46.949 -11.175 46.126 C -7.747 45.302 -4.846 44.231 -2.473 42.912 L -5.241 30.751 C -7.55 31.87 -10.07 32.777 -12.805 33.47 C -15.541 34.162 -18.359 34.508 -21.259 34.508 C -23.698 34.508 -25.66 34.096 -27.144 33.272 C -28.625 32.446 -29.368 31.047 -29.368 29.069 C -29.368 28.146 -29.235 27.355 -28.973 26.696 C -28.709 26.037 -28.229 25.411 -27.539 24.818 C -26.847 24.225 -25.874 23.632 -24.622 23.038 C -23.37 22.445 -21.788 21.753 -19.876 20.962 C -17.107 19.84 -14.503 18.653 -12.063 17.402 C -9.626 16.149 -7.515 14.698 -5.735 13.052 C -3.955 11.403 -2.556 9.524 -1.533 7.416 C -.512 5.305 0 2.833 0 0 " fill="#231f20"/>
</g>
</g>
</g>
</svg>
